{
	"asset":{
		"generator":"Khronos glTF Blender I/O v4.1.62",
		"version":"2.0"
	},
	"scene":0,
	"scenes":[
		{
			"name":"Scene",
			"nodes":[
				43
			]
		}
	],
	"nodes":[
		{
			"name":"head0_end",
			"rotation":[
				1.799780591227318e-07,
				-6.798654794692993e-08,
				-2.7939675462107516e-08,
				1
			],
			"scale":[
				1,
				1.0000001192092896,
				1.0000001192092896
			],
			"translation":[
				-2.384185791015625e-07,
				7.244673728942871,
				2.4475157260894775e-06
			]
		},
		{
			"children":[
				0
			],
			"name":"head0",
			"rotation":[
				0.6777515411376953,
				-0.03275182098150253,
				-0.05807162821292877,
				0.7322621941566467
			],
			"scale":[
				0.9999999403953552,
				1.0000001192092896,
				1
			],
			"translation":[
				-2.857483138996031e-09,
				6.426937103271484,
				2.8609479159058537e-06
			]
		},
		{
			"children":[
				1
			],
			"name":"neck1",
			"rotation":[
				-0.050205692648887634,
				-4.677563891775094e-10,
				-8.560498421239515e-10,
				0.9987389445304871
			],
			"scale":[
				1,
				1,
				0.9999999403953552
			],
			"translation":[
				7.712797067682686e-10,
				15.387336730957031,
				-4.768721737491433e-07
			]
		},
		{
			"children":[
				2
			],
			"name":"neck0",
			"rotation":[
				-0.20707276463508606,
				-1.0257986682304931e-09,
				-1.5037254774696862e-09,
				0.9783255457878113
			],
			"scale":[
				1,
				0.9999998807907104,
				0.9999998807907104
			],
			"translation":[
				-4.259792518723771e-09,
				7.652614116668701,
				-2.6523166525294073e-06
			]
		},
		{
			"name":"leg_front_right_toe_end",
			"rotation":[
				-5.122269719493033e-09,
				-5.510259803997997e-09,
				4.594517122313846e-08,
				1
			],
			"translation":[
				7.301741788978688e-08,
				3.000004768371582,
				3.3661183351796353e-07
			]
		},
		{
			"children":[
				4
			],
			"name":"leg_front_right_toe",
			"rotation":[
				-0.4512677788734436,
				0.4852883815765381,
				0.48528826236724854,
				0.5703927874565125
			],
			"scale":[
				0.9999999403953552,
				0.9999998807907104,
				1
			],
			"translation":[
				1.9669532775878906e-06,
				8.216605186462402,
				-5.960464477539063e-08
			]
		},
		{
			"children":[
				5
			],
			"name":"leg_front_right_ankle",
			"rotation":[
				0.19863764941692352,
				-0.634059488773346,
				-0.26263627409935,
				0.6996669769287109
			],
			"scale":[
				1,
				0.9999999403953552,
				1
			],
			"translation":[
				-1.1422275747463573e-07,
				8.626708030700684,
				2.967656200780766e-07
			]
		},
		{
			"children":[
				6
			],
			"name":"leg_front_right_bot0",
			"rotation":[
				0.014779916033148766,
				-0.9237617254257202,
				-0.3826341927051544,
				0.006071567069739103
			],
			"scale":[
				1.0000001192092896,
				0.9999996423721313,
				1
			],
			"translation":[
				-2.708984538912773e-07,
				15.647987365722656,
				-1.205007720272988e-07
			]
		},
		{
			"children":[
				7
			],
			"name":"leg_front_right_top1",
			"rotation":[
				0.008130932226777077,
				-0.5096592903137207,
				0.3089531362056732,
				0.802950382232666
			],
			"scale":[
				1,
				1.0000001192092896,
				1
			],
			"translation":[
				1.7881393432617188e-07,
				6.511678695678711,
				2.384185791015625e-07
			]
		},
		{
			"children":[
				8
			],
			"name":"leg_front_right_top0",
			"rotation":[
				0.5896496772766113,
				-0.5567704439163208,
				-0.571516752243042,
				0.1252543032169342
			],
			"scale":[
				0.9999998807907104,
				0.9999998211860657,
				1
			],
			"translation":[
				-0.2567146122455597,
				7.452163219451904,
				1.3917165994644165
			]
		},
		{
			"name":"leg_front_left_toe_end",
			"rotation":[
				3.175809126787499e-07,
				-1.7345861635931215e-08,
				1.8626366005136674e-09,
				1
			],
			"scale":[
				1,
				0.9999998807907104,
				1
			],
			"translation":[
				-1.3485535532709036e-07,
				3.000002384185791,
				2.3714812869002344e-07
			]
		},
		{
			"children":[
				10
			],
			"name":"leg_front_left_toe",
			"rotation":[
				-0.45126840472221375,
				-0.48528796434402466,
				-0.48528817296028137,
				0.5703927874565125
			],
			"scale":[
				1.0000001192092896,
				1,
				1
			],
			"translation":[
				-1.1771917343139648e-06,
				8.21660041809082,
				2.980232238769531e-07
			]
		},
		{
			"children":[
				11
			],
			"name":"leg_front_left_ankle",
			"rotation":[
				0.19863757491111755,
				0.6340593695640564,
				0.2626359760761261,
				0.6996672749519348
			],
			"scale":[
				0.9999999403953552,
				0.9999999403953552,
				1
			],
			"translation":[
				6.42518330096209e-07,
				8.626704216003418,
				-5.673024929819803e-07
			]
		},
		{
			"children":[
				12
			],
			"name":"leg_front_left_bot0",
			"rotation":[
				0.01477807480841875,
				0.9237618446350098,
				0.3826340138912201,
				0.00607641413807869
			],
			"scale":[
				0.9999999403953552,
				0.9999998807907104,
				0.9999999403953552
			],
			"translation":[
				-2.2898893803358078e-07,
				15.647995948791504,
				-1.0789826774271205e-06
			]
		},
		{
			"children":[
				13
			],
			"name":"leg_front_left_top1",
			"rotation":[
				0.00830932892858982,
				0.5207156538963318,
				-0.3045092821121216,
				0.7975338697433472
			],
			"scale":[
				1,
				1.0000001192092896,
				0.9999998807907104
			],
			"translation":[
				1.0132789611816406e-06,
				6.460864067077637,
				1.1920928955078125e-06
			]
		},
		{
			"children":[
				14
			],
			"name":"leg_front_left_top0",
			"rotation":[
				0.5944063067436218,
				0.5530421733856201,
				0.5676898956298828,
				0.1362120658159256
			],
			"scale":[
				1,
				1,
				0.9999999403953552
			],
			"translation":[
				0.2514055669307709,
				7.45089054107666,
				1.3945788145065308
			]
		},
		{
			"children":[
				3,
				9,
				15
			],
			"name":"body_top1",
			"rotation":[
				-0.09275618940591812,
				0.00344928540289402,
				0.0035406399983912706,
				0.995676577091217
			],
			"scale":[
				1.0000001192092896,
				0.9999999403953552,
				0.9999999403953552
			],
			"translation":[
				-3.725290298461914e-09,
				7.799366474151611,
				-6.503250915557146e-07
			]
		},
		{
			"children":[
				16
			],
			"name":"body_top0",
			"rotation":[
				0.0020088914316147566,
				-0.0037668785080313683,
				-0.0032219188287854195,
				0.9999857544898987
			],
			"scale":[
				1,
				0.9999999403953552,
				0.9999999403953552
			],
			"translation":[
				1.0913936421275139e-11,
				7.283251762390137,
				-1.9073486328125e-06
			]
		},
		{
			"name":"tail6_end",
			"rotation":[
				-4.619360254309868e-07,
				9.033828973770142e-07,
				6.258487701416016e-07,
				1
			],
			"scale":[
				1,
				0.9999999403953552,
				1
			],
			"translation":[
				3.2186508178710938e-06,
				4.5033159255981445,
				1.5497207641601562e-06
			]
		},
		{
			"children":[
				18
			],
			"name":"tail6",
			"rotation":[
				0.07364735752344131,
				0.9237611889839172,
				0.26184678077697754,
				0.2695879340171814
			],
			"scale":[
				0.9999998807907104,
				0.9999995827674866,
				0.9999998211860657
			],
			"translation":[
				-2.384185791015625e-07,
				2.9034221172332764,
				4.023313522338867e-06
			]
		},
		{
			"children":[
				19
			],
			"name":"tail5",
			"rotation":[
				-1.1548401346317405e-07,
				-3.6356218515720684e-06,
				4.569302092249927e-08,
				1
			],
			"scale":[
				0.9999999403953552,
				0.9999999403953552,
				0.9999998807907104
			],
			"translation":[
				4.231929779052734e-06,
				3.207840919494629,
				1.2367963790893555e-06
			]
		},
		{
			"children":[
				20
			],
			"name":"tail4",
			"rotation":[
				-5.42495435240653e-08,
				-7.013979939074488e-06,
				5.1513779908418655e-08,
				1
			],
			"scale":[
				1,
				1,
				0.9999999403953552
			],
			"translation":[
				-1.9669532775878906e-06,
				3.1121931076049805,
				3.0025839805603027e-06
			]
		},
		{
			"children":[
				21
			],
			"name":"tail3",
			"rotation":[
				0.0014864776749163866,
				-0.9526523947715759,
				0.23331642150878906,
				0.1949734389781952
			],
			"scale":[
				0.9999999403953552,
				1.000000238418579,
				0.9999998807907104
			],
			"translation":[
				-2.562999725341797e-06,
				3.555976629257202,
				2.4139881134033203e-06
			]
		},
		{
			"children":[
				22
			],
			"name":"tail2",
			"rotation":[
				-0.15271231532096863,
				-0.5755481719970703,
				0.199225053191185,
				0.7782883048057556
			],
			"scale":[
				1,
				1,
				0.9999999403953552
			],
			"translation":[
				-1.1995434761047363e-06,
				5.0147199630737305,
				7.748603820800781e-06
			]
		},
		{
			"children":[
				23
			],
			"name":"tail1",
			"rotation":[
				0.06459002196788788,
				0.2464488446712494,
				-0.08558287471532822,
				0.9632064700126648
			],
			"scale":[
				0.9999999403953552,
				0.9999998807907104,
				0.9999999403953552
			],
			"translation":[
				-4.3213367462158203e-07,
				1.8124552965164185,
				-4.059635102748871e-06
			]
		},
		{
			"children":[
				24
			],
			"name":"tail0",
			"rotation":[
				-0.08560819923877716,
				0.059643857181072235,
				-0.025113916024565697,
				0.9942249059677124
			],
			"scale":[
				0.9999999403953552,
				0.9999998211860657,
				0.9999999403953552
			],
			"translation":[
				3.5762786865234375e-07,
				12.538917541503906,
				5.077570676803589e-06
			]
		},
		{
			"children":[
				25
			],
			"name":"pelvis",
			"rotation":[
				-0.32395264506340027,
				-0.019870206713676453,
				0.017642226070165634,
				0.9457000494003296
			],
			"scale":[
				0.9999997615814209,
				0.9999999403953552,
				0.9999998211860657
			],
			"translation":[
				-2.9802322387695312e-08,
				13.463748931884766,
				1.574662746861577e-07
			]
		},
		{
			"name":"leg_hind_right_toe_end",
			"rotation":[
				3.231676544146467e-07,
				-1.9068775714004005e-07,
				-8.19563723553074e-08,
				1
			],
			"translation":[
				5.364536264096387e-07,
				3.000004291534424,
				6.156164999993052e-07
			]
		},
		{
			"children":[
				27
			],
			"name":"leg_hind_right_toe",
			"rotation":[
				-0.3906562328338623,
				-0.5142386555671692,
				-0.5142390131950378,
				0.5643621683120728
			],
			"translation":[
				1.9371509552001953e-06,
				7.836441993713379,
				-2.384185791015625e-07
			]
		},
		{
			"children":[
				28
			],
			"name":"leg_hind_right_ankle",
			"rotation":[
				-0.40336257219314575,
				0.5913057327270508,
				-0.3268378674983978,
				0.6171168684959412
			],
			"scale":[
				1.0000001192092896,
				1,
				1
			],
			"translation":[
				-4.76837158203125e-07,
				16.05652618408203,
				1.2516975402832031e-06
			]
		},
		{
			"children":[
				29
			],
			"name":"leg_hind_right_bot0",
			"rotation":[
				0.01786194182932377,
				-0.8961280584335327,
				0.435981422662735,
				0.0809672400355339
			],
			"scale":[
				0.9999999403953552,
				1.0000003576278687,
				1
			],
			"translation":[
				5.66287781111896e-07,
				12.549945831298828,
				-2.029422830673866e-06
			]
		},
		{
			"children":[
				30
			],
			"name":"leg_hind_right_top1",
			"rotation":[
				-0.015351989306509495,
				0.7705187797546387,
				0.3970106840133667,
				0.4984452426433563
			],
			"scale":[
				1.0000001192092896,
				1.0000001192092896,
				1.0000001192092896
			],
			"translation":[
				-9.5367431640625e-07,
				10.024324417114258,
				2.384185791015625e-07
			]
		},
		{
			"children":[
				31
			],
			"name":"leg_hind_right_top0",
			"rotation":[
				-0.8258911371231079,
				0.35326308012008667,
				-0.33906856179237366,
				0.2795380651950836
			],
			"scale":[
				0.9999997615814209,
				0.9999997615814209,
				0.9999997615814209
			],
			"translation":[
				-0.19311949610710144,
				13.2170991897583,
				-1.349364161491394
			]
		},
		{
			"name":"leg_hind_left_toe_end",
			"rotation":[
				3.203737435342191e-07,
				1.0384268023244658e-07,
				-2.4586907443335804e-07,
				1
			],
			"translation":[
				1.1932343113585375e-08,
				2.9999983310699463,
				1.5752364106447203e-06
			]
		},
		{
			"children":[
				33
			],
			"name":"leg_hind_left_toe",
			"rotation":[
				-0.39065587520599365,
				0.5142393112182617,
				0.5142391324043274,
				0.5643616318702698
			],
			"scale":[
				0.9999999403953552,
				1,
				1
			],
			"translation":[
				1.5795230865478516e-06,
				7.836452007293701,
				0
			]
		},
		{
			"children":[
				34
			],
			"name":"leg_hind_left_ankle",
			"rotation":[
				-0.4033626317977905,
				-0.5913060307502747,
				0.3268381953239441,
				0.617116391658783
			],
			"scale":[
				1.0000001192092896,
				1.0000001192092896,
				1
			],
			"translation":[
				5.960464477539062e-07,
				16.05652618408203,
				1.7881393432617188e-07
			]
		},
		{
			"children":[
				35
			],
			"name":"leg_hind_left_bot0",
			"rotation":[
				0.017863042652606964,
				0.8961277604103088,
				-0.43598154187202454,
				0.0809696614742279
			],
			"scale":[
				0.9999998807907104,
				1.0000003576278687,
				0.9999998807907104
			],
			"translation":[
				2.1042069420218468e-08,
				12.549946784973145,
				-3.379363988642581e-07
			]
		},
		{
			"children":[
				36
			],
			"name":"leg_hind_left_top1",
			"rotation":[
				-0.015467646531760693,
				-0.7763819098472595,
				-0.3956194519996643,
				0.4903847575187683
			],
			"scale":[
				0.9999999403953552,
				0.9999999403953552,
				1
			],
			"translation":[
				1.5497207641601562e-06,
				9.98482608795166,
				-4.76837158203125e-07
			]
		},
		{
			"children":[
				37
			],
			"name":"leg_hind_left_top0",
			"rotation":[
				-0.8288082480430603,
				-0.3517688810825348,
				0.33126166462898254,
				0.2821369767189026
			],
			"scale":[
				1,
				0.9999999403953552,
				1
			],
			"translation":[
				0.20194223523139954,
				13.217511177062988,
				-1.3490818738937378
			]
		},
		{
			"children":[
				26,
				32,
				38
			],
			"name":"body_bot",
			"rotation":[
				0.9946932196617126,
				0.002115535316988826,
				0.00182752450928092,
				0.10284756869077682
			],
			"scale":[
				0.9999999403953552,
				1.0000001192092896,
				1.0000039339065552
			],
			"translation":[
				-0.002006304683163762,
				0.9813242554664612,
				-0.1437961310148239
			]
		},
		{
			"children":[
				17,
				39
			],
			"name":"body",
			"rotation":[
				0.7599305510520935,
				7.180877420465137e-11,
				1.3782933820039034e-05,
				0.6500042676925659
			],
			"scale":[
				1,
				1,
				1.0000001192092896
			],
			"translation":[
				0.00013050000416114926,
				40.15847396850586,
				-8.345632553100586
			]
		},
		{
			"children":[
				40
			],
			"name":"root",
			"rotation":[
				-0.7071031928062439,
				0,
				0,
				0.7071103453636169
			],
			"translation":[
				0,
				0,
				26.48966407775879
			]
		},
		{
			"mesh":0,
			"name":"amber-lite",
			"skin":0
		},
		{
			"children":[
				42,
				41
			],
			"name":"rig",
			"rotation":[
				0.7071068286895752,
				0,
				0,
				0.7071068286895752
			]
		}
	],
	"materials":[
		{
			"doubleSided":true,
			"name":"Material.001",
			"pbrMetallicRoughness":{
				"baseColorTexture":{
					"index":0
				},
				"metallicFactor":0,
				"roughnessFactor":0.75
			}
		}
	],
	"meshes":[
		{
			"name":"amber-lite",
			"primitives":[
				{
					"attributes":{
						"POSITION":0,
						"NORMAL":1,
						"TEXCOORD_0":2,
						"JOINTS_0":3,
						"WEIGHTS_0":4
					},
					"indices":5,
					"material":0
				}
			]
		}
	],
	"textures":[
		{
			"sampler":0,
			"source":0
		}
	],
	"images":[
		{
			"mimeType":"image/png",
			"name":"Meshy_AI_Amber_Gaze_0704003008_texture",
			"uri":"Meshy_AI_Amber_Gaze_0704003008_texture.png"
		}
	],
	"skins":[
		{
			"inverseBindMatrices":6,
			"joints":[
				41,
				40,
				17,
				16,
				3,
				2,
				1,
				0,
				9,
				8,
				7,
				6,
				5,
				4,
				15,
				14,
				13,
				12,
				11,
				10,
				39,
				26,
				25,
				24,
				23,
				22,
				21,
				20,
				19,
				18,
				32,
				31,
				30,
				29,
				28,
				27,
				38,
				37,
				36,
				35,
				34,
				33
			],
			"name":"rig"
		}
	],
	"accessors":[
		{
			"bufferView":0,
			"componentType":5126,
			"count":13965,
			"max":[
				11.559220314025879,
				26.489665985107422,
				40.800506591796875
			],
			"min":[
				-11.559221267700195,
				-26.489669799804688,
				-40.80051040649414
			],
			"type":"VEC3"
		},
		{
			"bufferView":1,
			"componentType":5126,
			"count":13965,
			"type":"VEC3"
		},
		{
			"bufferView":2,
			"componentType":5126,
			"count":13965,
			"type":"VEC2"
		},
		{
			"bufferView":3,
			"componentType":5121,
			"count":13965,
			"type":"VEC4"
		},
		{
			"bufferView":4,
			"componentType":5126,
			"count":13965,
			"type":"VEC4"
		},
		{
			"bufferView":5,
			"componentType":5123,
			"count":57837,
			"type":"SCALAR"
		},
		{
			"bufferView":6,
			"componentType":5126,
			"count":42,
			"type":"MAT4"
		}
	],
	"bufferViews":[
		{
			"buffer":0,
			"byteLength":167580,
			"byteOffset":0,
			"target":34962
		},
		{
			"buffer":0,
			"byteLength":167580,
			"byteOffset":167580,
			"target":34962
		},
		{
			"buffer":0,
			"byteLength":111720,
			"byteOffset":335160,
			"target":34962
		},
		{
			"buffer":0,
			"byteLength":55860,
			"byteOffset":446880,
			"target":34962
		},
		{
			"buffer":0,
			"byteLength":223440,
			"byteOffset":502740,
			"target":34962
		},
		{
			"buffer":0,
			"byteLength":115674,
			"byteOffset":726180,
			"target":34963
		},
		{
			"buffer":0,
			"byteLength":2688,
			"byteOffset":841856
		}
	],
	"samplers":[
		{
			"magFilter":9729,
			"minFilter":9987
		}
	],
	"buffers":[
		{
			"byteLength":844544,
			"uri":"amber-lite.bin"
		}
	]
}
